<svg width="816" height="1110" viewBox="0 0 816 1110" fill="none" xmlns="http://www.w3.org/2000/svg">
<rect x="36.5" y="36.5" width="743" height="1037" rx="36.5" fill="white" stroke="black"/>
<path d="M454.81 556.2L407.41 555.9C387.61 555.9 371.91 556 360.31 556.2V594.3C360.31 601.7 360.71 612.5 361.51 626.7C362.51 640.9 363.61 650.3 364.81 654.9V657H324.91V654.9C327.91 643.3 329.41 623 329.41 594V510C329.41 481 327.91 460.7 324.91 449.1V447H364.81V449.1C363.61 453.7 362.51 463.2 361.51 477.6C360.71 491.8 360.31 502.6 360.31 510V537.3H454.81V510C454.81 502.6 454.31 491.8 453.31 477.6C452.51 463.2 451.51 453.7 450.31 449.1V447H490.21V449.1C487.21 460.7 485.71 481 485.71 510V594C485.71 623 487.21 643.3 490.21 654.9V657H450.31V654.9C451.51 650.3 452.51 640.9 453.31 626.7C454.31 612.5 454.81 601.7 454.81 594.3V556.2Z" fill="#FC1717"/>
<path fill-rule="evenodd" clip-rule="evenodd" d="M122.5 933.484C134.876 899.219 182 916.549 182 953.193C182 975.183 165.008 994.847 123.887 1033.69C123.117 1034.42 121.883 1034.42 121.113 1033.69C79.9924 994.849 63 975.3 63 953.193C63 916.549 110.124 899.338 122.5 933.484ZM104.413 952.1V999H111.903V942.3H106.233C105.533 943.233 104.67 944.05 103.643 944.75C102.663 945.45 101.613 946.033 100.493 946.5C99.42 946.967 98.3467 947.363 97.2734 947.69C96.2467 948.017 95.3367 948.273 94.5434 948.46V954.13C94.59 954.13 95.1034 954.037 96.0834 953.85C97.0634 953.663 98.1834 953.453 99.4434 953.22C100.703 952.987 101.823 952.753 102.803 952.52C103.83 952.287 104.367 952.147 104.413 952.1ZM129.157 997.88C131.211 999.047 133.777 999.63 136.857 999.63C140.217 999.63 142.924 998.953 144.977 997.6C147.031 996.2 148.524 994.263 149.457 991.79C150.391 989.27 150.857 986.33 150.857 982.97C150.857 980.403 150.531 978.163 149.877 976.25C149.224 974.29 148.291 972.68 147.077 971.42C145.911 970.16 144.464 969.273 142.737 968.76C145.211 968.013 147.171 966.613 148.617 964.56C150.111 962.507 150.857 959.777 150.857 956.37C150.857 953.337 150.344 950.747 149.317 948.6C148.291 946.407 146.751 944.727 144.697 943.56C142.644 942.393 140.054 941.81 136.927 941.81C133.847 941.81 131.257 942.393 129.157 943.56C127.104 944.727 125.564 946.383 124.537 948.53C123.511 950.677 122.997 953.267 122.997 956.3V958.19H130.417V957.63V957C130.511 954.34 130.977 952.17 131.817 950.49C132.657 948.763 134.361 947.9 136.927 947.9C139.494 947.9 141.197 948.67 142.037 950.21C142.924 951.75 143.367 953.803 143.367 956.37C143.367 959.403 142.784 961.573 141.617 962.88C140.451 964.187 138.537 964.887 135.877 964.98H135.387H134.897V972.47H135.387C135.621 972.47 135.807 972.493 135.947 972.54C138.701 972.727 140.614 973.777 141.687 975.69C142.807 977.557 143.367 979.983 143.367 982.97C143.367 985.023 143.204 986.843 142.877 988.43C142.551 990.017 141.921 991.253 140.987 992.14C140.054 992.98 138.677 993.4 136.857 993.4C135.131 993.4 133.801 993.003 132.867 992.21C131.981 991.417 131.351 990.343 130.977 988.99C130.651 987.637 130.464 986.12 130.417 984.44V983.81V983.18H122.997V985.07C122.997 988.057 123.511 990.647 124.537 992.84C125.564 995.033 127.104 996.713 129.157 997.88Z" fill="#FC1717"/>
<path d="M114.792 848.224L114.714 860.548C114.714 865.696 114.74 869.778 114.792 872.794L124.698 872.794C126.622 872.794 129.43 872.69 133.122 872.482C136.814 872.222 139.258 871.936 140.454 871.624L141 871.624L141 881.998L140.454 881.998C137.438 881.218 132.16 880.828 124.62 880.828L102.78 880.828C95.2401 880.828 89.9621 881.218 86.9461 881.998L86.4001 881.998L86.4001 871.624L86.9461 871.624C88.1421 871.936 90.6121 872.222 94.3561 872.482C98.0481 872.69 100.856 872.794 102.78 872.794L109.878 872.794L109.878 848.224L102.78 848.224C100.856 848.224 98.0481 848.354 94.3561 848.614C90.6121 848.822 88.1421 849.082 86.9461 849.394L86.4001 849.394L86.4001 839.02L86.9461 839.02C89.9621 839.8 95.2401 840.19 102.78 840.19L124.62 840.19C132.16 840.19 137.438 839.8 140.454 839.02L141 839.02L141 849.394L140.454 849.394C139.258 849.082 136.814 848.822 133.122 848.614C129.43 848.354 126.622 848.224 124.698 848.224L114.792 848.224ZM141.936 809.489C141.936 814.949 140.22 819.265 136.788 822.437C133.304 825.609 128.78 827.195 123.216 827.195C117.6 827.195 112.764 825.349 108.708 821.657C104.652 817.965 102.624 813.337 102.624 807.773C102.624 802.157 104.314 797.841 107.694 794.825C111.074 791.757 115.598 790.223 121.266 790.223C126.934 790.223 131.796 792.069 135.852 795.761C139.908 799.453 141.936 804.029 141.936 809.489ZM123.216 798.491C118.068 798.491 114.09 799.297 111.282 800.909C108.474 802.521 107.07 805.381 107.07 809.489C107.07 812.141 107.642 814.221 108.786 815.729C109.982 816.665 111.802 817.445 114.246 818.069C116.69 818.641 119.03 818.927 121.266 818.927C132.134 818.927 137.568 815.079 137.568 807.383C137.568 804.991 137.022 803.041 135.93 801.533C134.734 800.545 132.888 799.791 130.392 799.271C127.896 798.751 125.504 798.491 123.216 798.491ZM132.732 767.016C121.084 762.96 113.154 760.412 108.942 759.372C106.498 760.412 105.094 761.166 104.73 761.634L103.794 761.634L103.248 751.572L104.184 751.572C105.692 751.572 110.346 750.246 118.146 747.594L133.122 742.524C122.566 739.092 116.17 737.09 113.934 736.518C110.294 735.426 107.148 734.88 104.496 734.88L103.56 734.88L103.56 727.236L104.496 727.236C105.692 728.536 108.214 729.784 112.062 730.98L137.568 738.78L141.702 739.794L141.858 747.126L137.412 748.452L116.586 756.486L137.568 763.506L141.702 764.364L141.858 771.774L137.412 773.1L111.75 783.318C107.954 784.774 105.666 786.1 104.886 787.296L103.95 787.296L103.014 776.064L103.95 776.064C105.77 776.064 110.32 774.79 117.6 772.242L132.732 767.016ZM132.264 694.062C135.02 694.062 136.398 693.23 136.398 691.566C136.398 690.162 135.566 687.796 133.902 684.468L136.632 682.83C137.776 684.494 138.946 686.574 140.142 689.07C141.286 691.566 141.858 693.854 141.858 695.934C141.858 698.014 141.208 699.444 139.908 700.224C138.608 701.004 136.736 701.394 134.292 701.394L108.006 701.394L108.396 708.414L103.326 706.542C103.43 705.606 103.534 703.942 103.638 701.55C101.038 701.654 98.698 701.81 96.618 702.018L94.59 694.062L103.56 694.062C103.456 691.254 103.144 687.432 102.624 682.596L108.708 684.78C108.292 687.588 108.032 690.682 107.928 694.062L132.264 694.062ZM141.936 659.887C141.936 665.347 140.22 669.663 136.788 672.835C133.304 676.007 128.78 677.593 123.216 677.593C117.6 677.593 112.764 675.747 108.708 672.055C104.652 668.363 102.624 663.735 102.624 658.171C102.624 652.555 104.314 648.239 107.694 645.223C111.074 642.155 115.598 640.621 121.266 640.621C126.934 640.621 131.796 642.467 135.852 646.159C139.908 649.851 141.936 654.427 141.936 659.887ZM123.216 648.889C118.068 648.889 114.09 649.695 111.282 651.307C108.474 652.919 107.07 655.779 107.07 659.887C107.07 662.539 107.642 664.619 108.786 666.127C109.982 667.063 111.802 667.843 114.246 668.467C116.69 669.039 119.03 669.325 121.266 669.325C132.134 669.325 137.568 665.477 137.568 657.781C137.568 655.389 137.022 653.439 135.93 651.931C134.734 650.943 132.888 650.189 130.392 649.669C127.896 649.149 125.504 648.889 123.216 648.889ZM86.556 606.447L86.4 594.201C86.4 580.785 91.366 574.077 101.298 574.077C107.018 574.077 111.464 576.053 114.636 580.005C117.808 583.905 119.394 588.923 119.394 595.059C119.394 597.191 119.16 599.427 118.692 601.767L130.47 601.767C134.734 601.767 138.088 601.273 140.532 600.285L141 600.285L141 611.283L140.454 611.283C137.802 610.295 134.084 609.801 129.3 609.801L99.426 609.801C93.966 609.801 89.806 610.217 86.946 611.049L86.4 611.049L86.556 606.447ZM102.078 582.891C94.278 582.891 90.378 586.635 90.378 594.123C90.378 597.919 90.456 600.415 90.612 601.611C92.016 601.715 96.592 601.767 104.34 601.767L115.026 601.767C115.598 599.739 115.884 597.633 115.884 595.449C115.884 591.341 114.688 588.221 112.296 586.089C109.852 583.957 106.446 582.891 102.078 582.891ZM141 554.885L141 564.947L140.064 564.947C137.464 564.063 133.356 563.621 127.74 563.621L95.214 563.621C91.054 563.621 87.83 564.817 85.542 567.209L84.606 567.209L82.734 556.523L83.514 556.055C85.022 556.211 90.014 556.289 98.49 556.289L127.74 556.211C133.356 556.211 137.464 555.769 140.064 554.885L141 554.885ZM125.4 524.803C124.62 526.935 124.23 529.405 124.23 532.213C124.23 534.969 124.672 536.971 125.556 538.219C126.752 538.999 128.364 539.389 130.392 539.389C132.368 539.389 133.928 538.843 135.072 537.751C136.216 536.659 136.788 535.307 136.788 533.695C136.788 532.031 136.372 530.341 135.54 528.625C134.656 526.909 133.72 525.635 132.732 524.803L125.4 524.803ZM136.632 523.555C140.116 526.727 141.858 530.315 141.858 534.319C141.858 538.271 141 541.391 139.284 543.679C137.568 545.915 134.812 547.033 131.016 547.033C127.168 547.033 124.412 545.707 122.748 543.055C121.084 540.351 120.252 536.555 120.252 531.667L120.486 524.803L116.04 524.803C113.284 524.803 111.048 525.479 109.332 526.831C107.616 528.183 106.758 530.237 106.758 532.993C106.81 535.021 108.76 538.271 112.608 542.743C110.684 544.251 108.188 545.317 105.12 545.941C103.456 540.793 102.624 536.061 102.624 531.745C102.624 527.429 103.742 523.971 105.978 521.371C108.214 518.771 111.386 517.471 115.494 517.471L128.598 517.471C130.938 517.419 133.122 517.055 135.15 516.379C137.126 515.651 138.504 514.715 139.284 513.571L140.064 513.415L142.092 521.761C140.428 522.437 138.608 523.035 136.632 523.555ZM133.824 492.569C118.588 487.577 109.54 485.081 106.68 485.081C105.796 485.081 105.068 485.263 104.496 485.627L103.56 485.627L103.56 477.281L104.496 477.281C105.172 478.061 117.08 482.299 140.22 489.995C151.036 493.687 157.484 495.793 159.564 496.313L160.188 496.313L160.89 505.985L160.344 506.063C155.82 502.267 149.736 498.939 142.092 496.079C141.208 496.391 130.496 500.889 109.956 509.573C107.512 510.613 105.796 511.731 104.808 512.927L103.872 512.927L103.014 502.475L103.95 502.475C105.302 502.475 107.928 501.851 111.828 500.603C115.676 499.355 123.008 496.677 133.824 492.569ZM87.726 395.318L86.4 395.318L86.4 384.788L87.18 384.788C95.084 388.48 107.98 392.562 125.868 397.034C134.656 399.27 139.726 400.57 141.078 400.934L142.014 410.918C139.154 410.918 128.156 413.648 109.02 419.108C108.292 419.316 107.434 419.55 106.446 419.81C105.406 420.07 104.08 420.434 102.468 420.902C100.804 421.318 99.296 421.708 97.944 422.072L97.944 422.228C99.348 422.592 101.298 423.164 103.794 423.944C106.238 424.724 110.398 425.972 116.274 427.688C122.15 429.352 126.7 430.574 129.924 431.354C133.148 432.082 136.866 433.044 141.078 434.24L142.014 444.224C139.518 444.224 126.388 447.604 102.624 454.364C96.956 455.976 93.212 457.12 91.392 457.796C89.572 458.472 88.168 459.226 87.18 460.058L86.4 460.058L86.4 448.436L87.726 448.436C91.158 448.436 95.968 447.63 102.156 446.018L135.15 437.75C118.822 432.914 105.432 429.586 94.98 427.766C91.288 427.142 88.428 426.804 86.4 426.752L86.4 417.158C91.34 416.638 98.62 415.026 108.24 412.322C111.724 411.334 120.694 408.786 135.15 404.678C134.162 404.47 131.276 403.69 126.492 402.338C109.488 397.658 96.566 395.318 87.726 395.318ZM141.936 367.387C141.936 372.847 140.22 377.163 136.788 380.335C133.304 383.507 128.78 385.093 123.216 385.093C117.6 385.093 112.764 383.247 108.708 379.555C104.652 375.863 102.624 371.235 102.624 365.671C102.624 360.055 104.314 355.739 107.694 352.723C111.074 349.655 115.598 348.121 121.266 348.121C126.934 348.121 131.796 349.967 135.852 353.659C139.908 357.351 141.936 361.927 141.936 367.387ZM123.216 356.389C118.068 356.389 114.09 357.195 111.282 358.807C108.474 360.419 107.07 363.279 107.07 367.387C107.07 370.039 107.642 372.119 108.786 373.627C109.982 374.563 111.802 375.343 114.246 375.967C116.69 376.539 119.03 376.825 121.266 376.825C132.134 376.825 137.568 372.977 137.568 365.281C137.568 362.889 137.022 360.939 135.93 359.431C134.734 358.443 132.888 357.689 130.392 357.169C127.896 356.649 125.504 356.389 123.216 356.389ZM102.624 318.363C102.624 316.751 102.806 315.555 103.17 314.775C103.482 314.775 103.794 314.775 104.106 314.775C107.174 314.775 109.956 315.243 112.452 316.179C110.944 318.519 110.19 321.171 110.19 324.135C110.19 325.747 110.476 327.359 111.048 328.971L127.74 328.971C132.784 328.971 137.022 328.217 140.454 326.709L141 326.709L141 337.629L140.454 337.629C137.854 336.745 134.396 336.303 130.08 336.303L116.82 336.303C114.584 336.303 112.4 336.771 110.268 337.707C108.084 338.591 106.628 339.631 105.9 340.827L104.964 340.905L102.546 331.701C103.95 330.869 105.588 330.193 107.46 329.673C104.236 326.553 102.624 322.783 102.624 318.363ZM141.858 295.434C141.858 300.842 140.038 304.872 136.398 307.524C132.706 310.176 128.078 311.502 122.514 311.502C116.95 311.502 112.244 309.812 108.396 306.432C104.548 303 102.624 298.684 102.624 293.484C102.624 290.572 103.118 287.686 104.106 284.826L95.214 284.826C91.054 284.826 87.83 286.022 85.542 288.414L84.606 288.414L82.734 277.728L83.514 277.26C85.022 277.416 87.18 277.494 89.988 277.494L128.598 277.494C130.938 277.494 133.174 277.13 135.306 276.402C137.386 275.674 138.816 274.738 139.596 273.594L140.376 273.438L142.404 281.94C141.104 282.46 138.972 283.11 136.008 283.89C139.908 287.894 141.858 291.742 141.858 295.434ZM133.746 299.1C135.306 297.592 136.086 295.538 136.086 292.938C136.086 290.338 134.838 287.634 132.342 284.826L110.346 284.826C108.37 287.53 107.382 290.91 107.382 294.966C107.382 297.306 107.85 299.1 108.786 300.348C111.854 302.272 116.092 303.234 121.5 303.234C126.908 303.234 130.99 301.856 133.746 299.1ZM130.158 263.198L115.026 263.198C110.398 263.198 107.174 264.498 105.354 267.098L104.418 267.098L102.546 256.1L103.326 255.632C104.834 255.788 106.992 255.866 109.8 255.866L128.208 255.866C133.408 255.866 137.49 255.216 140.454 253.916L141 253.916L141 264.446L140.454 264.446C138.01 263.614 134.578 263.198 130.158 263.198ZM85.776 256.646C86.4 255.918 87.908 255.554 90.3 255.554C90.872 255.554 91.392 255.58 91.86 255.632L92.406 256.256C92.978 258.336 93.394 260.806 93.654 263.666L93.342 264.368C91.99 265.148 90.196 265.538 87.96 265.538C87.7 265.538 87.44 265.538 87.18 265.538L86.634 264.914C85.802 262.418 85.386 260.026 85.386 257.738C85.386 257.478 85.516 257.114 85.776 256.646ZM141.858 229.295C141.858 234.755 140.168 239.019 136.788 242.087C133.408 245.155 128.962 246.689 123.45 246.689C117.886 246.689 113.024 244.973 108.864 241.541C104.704 238.109 102.624 233.845 102.624 228.749C102.624 219.441 108.37 214.787 119.862 214.787L122.67 217.673L122.67 238.421C127.038 238.421 130.314 237.485 132.498 235.613C134.682 233.741 135.774 231.219 135.774 228.047C135.774 226.799 135.41 225.031 134.682 222.743C133.902 220.455 132.992 218.427 131.952 216.659L134.916 214.709C135.904 215.697 137.308 217.855 139.128 221.183C140.948 224.459 141.858 227.163 141.858 229.295ZM106.524 230.153C106.524 232.337 107.018 234.027 108.006 235.223C109.358 236.211 111.074 236.991 113.154 237.563C115.234 238.135 117.054 238.421 118.614 238.421L117.99 222.431C110.346 222.431 106.524 225.005 106.524 230.153Z" fill="#FC1717"/>
<path d="M155.7 100.576V129.024C155.7 139.776 156.26 147.28 157.38 151.536V154H138.116V151.536C138.564 149.819 138.937 146.384 139.236 141.232C139.609 136.005 139.796 132.048 139.796 129.36V118.72C131.433 118.571 124.788 118.496 119.86 118.496C114.932 118.496 110.377 118.533 106.196 118.608V129.36C106.196 131.973 106.345 135.893 106.644 141.12C107.017 146.347 107.39 149.819 107.764 151.536V154H88.6116V151.536C89.7316 147.28 90.2916 139.776 90.2916 129.024V100.576C90.2916 89.824 89.7316 82.32 88.6116 78.064V75.6H107.764V78.064C107.39 79.7813 107.017 83.2533 106.644 88.48C106.345 93.7067 106.196 97.664 106.196 100.352V108.864H139.796V100.352C139.796 97.5893 139.609 93.632 139.236 88.48C138.937 83.2533 138.564 79.7813 138.116 78.064V75.6H157.38V78.064C156.26 82.32 155.7 89.824 155.7 100.576Z" fill="#FC1717"/>
<path fill-rule="evenodd" clip-rule="evenodd" d="M693.5 176.516C681.124 210.781 634 193.451 634 156.807C634 134.817 650.993 115.153 692.114 76.3085C692.883 75.5814 694.117 75.5814 694.887 76.3085C736.008 115.151 753 134.7 753 156.807C753 193.451 705.876 210.662 693.5 176.516ZM711.587 157.9L711.587 111L704.097 111L704.097 167.7L709.767 167.7C710.467 166.767 711.33 165.95 712.357 165.25C713.337 164.55 714.387 163.967 715.507 163.5C716.58 163.033 717.653 162.637 718.727 162.31C719.753 161.983 720.663 161.727 721.457 161.54L721.457 155.87C721.41 155.87 720.897 155.963 719.917 156.15C718.937 156.337 717.817 156.547 716.557 156.78C715.297 157.013 714.177 157.247 713.197 157.48C712.17 157.713 711.633 157.853 711.587 157.9ZM686.843 112.12C684.79 110.953 682.223 110.37 679.143 110.37C675.783 110.37 673.076 111.047 671.023 112.4C668.97 113.8 667.476 115.737 666.543 118.21C665.61 120.73 665.143 123.67 665.143 127.03C665.143 129.597 665.47 131.837 666.123 133.75C666.776 135.71 667.71 137.32 668.923 138.58C670.09 139.84 671.536 140.727 673.263 141.24C670.79 141.987 668.83 143.387 667.383 145.44C665.89 147.493 665.143 150.223 665.143 153.63C665.143 156.663 665.656 159.253 666.683 161.4C667.71 163.593 669.25 165.273 671.303 166.44C673.356 167.607 675.946 168.19 679.073 168.19C682.153 168.19 684.743 167.607 686.843 166.44C688.896 165.273 690.436 163.617 691.463 161.47C692.49 159.323 693.003 156.733 693.003 153.7L693.003 151.81L685.583 151.81L685.583 152.37L685.583 153C685.49 155.66 685.023 157.83 684.183 159.51C683.343 161.237 681.64 162.1 679.073 162.1C676.506 162.1 674.803 161.33 673.963 159.79C673.076 158.25 672.633 156.197 672.633 153.63C672.633 150.597 673.216 148.427 674.383 147.12C675.55 145.813 677.463 145.113 680.123 145.02L680.613 145.02L681.103 145.02L681.103 137.53L680.613 137.53C680.38 137.53 680.193 137.507 680.053 137.46C677.3 137.273 675.386 136.223 674.313 134.31C673.193 132.443 672.633 130.017 672.633 127.03C672.633 124.977 672.796 123.157 673.123 121.57C673.45 119.983 674.08 118.747 675.013 117.86C675.946 117.02 677.323 116.6 679.143 116.6C680.87 116.6 682.2 116.997 683.133 117.79C684.02 118.583 684.65 119.657 685.023 121.01C685.35 122.363 685.536 123.88 685.583 125.56L685.583 126.19L685.583 126.82L693.003 126.82L693.003 124.93C693.003 121.943 692.49 119.353 691.463 117.16C690.436 114.967 688.896 113.287 686.843 112.12Z" fill="#FC1717"/>
<path d="M702.536 269.397L702.612 257.389C702.612 252.373 702.587 248.396 702.536 245.457L692.884 245.457C691.009 245.457 688.273 245.559 684.676 245.761C681.079 246.015 678.697 246.293 677.532 246.597L677 246.597L677 236.489L677.532 236.489C680.471 237.249 685.613 237.629 692.96 237.629L714.24 237.629C721.587 237.629 726.729 237.249 729.668 236.489L730.2 236.489L730.2 246.597L729.668 246.597C728.503 246.293 726.096 246.015 722.448 245.761C718.851 245.559 716.115 245.457 714.24 245.457L707.324 245.457L707.324 269.397L714.24 269.397C716.115 269.397 718.851 269.271 722.448 269.017C726.096 268.815 728.503 268.561 729.668 268.257L730.2 268.257L730.2 278.365L729.668 278.365C726.729 277.605 721.587 277.225 714.24 277.225L692.96 277.225C685.613 277.225 680.471 277.605 677.532 278.365L677 278.365L677 268.257L677.532 268.257C678.697 268.561 681.079 268.815 684.676 269.017C688.273 269.271 691.009 269.397 692.884 269.397L702.536 269.397ZM676.088 307.139C676.088 301.819 677.76 297.614 681.104 294.523C684.499 291.432 688.907 289.887 694.328 289.887C699.8 289.887 704.512 291.686 708.464 295.283C712.416 298.88 714.392 303.39 714.392 308.811C714.392 314.283 712.745 318.488 709.452 321.427C706.159 324.416 701.751 325.911 696.228 325.911C690.705 325.911 685.968 324.112 682.016 320.515C678.064 316.918 676.088 312.459 676.088 307.139ZM694.328 317.855C699.344 317.855 703.22 317.07 705.956 315.499C708.692 313.928 710.06 311.142 710.06 307.139C710.06 304.555 709.503 302.528 708.388 301.059C707.223 300.147 705.449 299.387 703.068 298.779C700.687 298.222 698.407 297.943 696.228 297.943C685.639 297.943 680.344 301.692 680.344 309.191C680.344 311.522 680.876 313.422 681.94 314.891C683.105 315.854 684.904 316.588 687.336 317.095C689.768 317.602 692.099 317.855 694.328 317.855ZM685.056 348.523C696.405 352.475 704.132 354.957 708.236 355.971C710.617 354.957 711.985 354.223 712.34 353.767L713.252 353.767L713.784 363.571L712.872 363.571C711.403 363.571 706.868 364.863 699.268 367.447L684.676 372.387C694.961 375.731 701.193 377.681 703.372 378.239C706.919 379.303 709.984 379.835 712.568 379.835L713.48 379.835L713.48 387.283L712.568 387.283C711.403 386.016 708.945 384.8 705.196 383.635L680.344 376.035L676.316 375.047L676.164 367.903L680.496 366.611L700.788 358.783L680.344 351.943L676.316 351.107L676.164 343.887L680.496 342.595L705.5 332.639C709.199 331.22 711.428 329.928 712.188 328.763L713.1 328.763L714.012 339.707L713.1 339.707C711.327 339.707 706.893 340.948 699.8 343.431L685.056 348.523ZM685.512 419.606C682.827 419.606 681.484 420.417 681.484 422.038C681.484 423.406 682.295 425.711 683.916 428.954L681.256 430.55C680.141 428.929 679.001 426.902 677.836 424.47C676.721 422.038 676.164 419.809 676.164 417.782C676.164 415.755 676.797 414.362 678.064 413.602C679.331 412.842 681.155 412.462 683.536 412.462L709.148 412.462L708.768 405.622L713.708 407.446C713.607 408.358 713.505 409.979 713.404 412.31C715.937 412.209 718.217 412.057 720.244 411.854L722.22 419.606L713.48 419.606C713.581 422.342 713.885 426.066 714.392 430.778L708.464 428.65C708.869 425.914 709.123 422.899 709.224 419.606L685.512 419.606ZM676.088 452.905C676.088 447.585 677.76 443.379 681.104 440.289C684.499 437.198 688.907 435.653 694.328 435.653C699.8 435.653 704.512 437.451 708.464 441.049C712.416 444.646 714.392 449.155 714.392 454.577C714.392 460.049 712.745 464.254 709.452 467.193C706.159 470.182 701.751 471.677 696.228 471.677C690.705 471.677 685.968 469.878 682.016 466.281C678.064 462.683 676.088 458.225 676.088 452.905ZM694.328 463.621C699.344 463.621 703.22 462.835 705.956 461.265C708.692 459.694 710.06 456.907 710.06 452.905C710.06 450.321 709.503 448.294 708.388 446.825C707.223 445.913 705.449 445.153 703.068 444.545C700.687 443.987 698.407 443.709 696.228 443.709C685.639 443.709 680.344 447.458 680.344 454.957C680.344 457.287 680.876 459.187 681.94 460.657C683.105 461.619 684.904 462.354 687.336 462.861C689.768 463.367 692.099 463.621 694.328 463.621ZM730.048 504.975L730.2 516.907C730.2 529.979 725.361 536.515 715.684 536.515C710.111 536.515 705.779 534.589 702.688 530.739C699.597 526.939 698.052 522.049 698.052 516.071C698.052 513.993 698.28 511.815 698.736 509.535L687.26 509.535C683.105 509.535 679.837 510.016 677.456 510.979L677 510.979L677 500.263L677.532 500.263C680.116 501.225 683.739 501.707 688.4 501.707L717.508 501.707C722.828 501.707 726.881 501.301 729.668 500.491L730.2 500.491L730.048 504.975ZM714.924 527.927C722.524 527.927 726.324 524.279 726.324 516.983C726.324 513.284 726.248 510.852 726.096 509.687C724.728 509.585 720.269 509.535 712.72 509.535L702.308 509.535C701.751 511.511 701.472 513.563 701.472 515.691C701.472 519.693 702.637 522.733 704.968 524.811C707.349 526.888 710.668 527.927 714.924 527.927ZM677 555.214L677 545.41L677.912 545.41C680.445 546.272 684.448 546.702 689.92 546.702L721.612 546.702C725.665 546.702 728.807 545.537 731.036 543.206L731.948 543.206L733.772 553.618L733.012 554.074C731.543 553.922 726.679 553.846 718.42 553.846L689.92 553.922C684.448 553.922 680.445 554.353 677.912 555.214L677 555.214ZM692.2 584.525C692.96 582.448 693.34 580.041 693.34 577.305C693.34 574.62 692.909 572.669 692.048 571.453C690.883 570.693 689.312 570.313 687.336 570.313C685.411 570.313 683.891 570.845 682.776 571.909C681.661 572.973 681.104 574.291 681.104 575.861C681.104 577.483 681.509 579.129 682.32 580.801C683.181 582.473 684.093 583.715 685.056 584.525L692.2 584.525ZM681.256 585.741C677.861 582.651 676.164 579.155 676.164 575.253C676.164 571.403 677 568.363 678.672 566.133C680.344 563.955 683.029 562.865 686.728 562.865C690.477 562.865 693.163 564.157 694.784 566.741C696.405 569.376 697.216 573.075 697.216 577.837L696.988 584.525L701.32 584.525C704.005 584.525 706.184 583.867 707.856 582.549C709.528 581.232 710.364 579.231 710.364 576.545C710.313 574.569 708.413 571.403 704.664 567.045C706.539 565.576 708.971 564.537 711.96 563.929C713.581 568.945 714.392 573.556 714.392 577.761C714.392 581.967 713.303 585.336 711.124 587.869C708.945 590.403 705.855 591.669 701.852 591.669L689.084 591.669C686.804 591.72 684.676 592.075 682.7 592.733C680.775 593.443 679.432 594.355 678.672 595.469L677.912 595.621L675.936 587.489C677.557 586.831 679.331 586.248 681.256 585.741ZM683.992 615.933C698.837 620.797 707.653 623.229 710.44 623.229C711.301 623.229 712.011 623.052 712.568 622.697L713.48 622.697L713.48 630.829L712.568 630.829C711.909 630.069 700.307 625.94 677.76 618.441C667.221 614.844 660.939 612.792 658.912 612.285L658.304 612.285L657.62 602.861L658.152 602.785C662.56 606.484 668.488 609.726 675.936 612.513C676.797 612.209 687.235 607.826 707.248 599.365C709.629 598.352 711.301 597.262 712.264 596.097L713.176 596.097L714.012 606.281L713.1 606.281C711.783 606.281 709.224 606.889 705.424 608.105C701.675 609.321 694.531 611.93 683.992 615.933ZM728.908 710.69L730.2 710.69L730.2 720.95L729.44 720.95C721.739 717.353 709.173 713.375 691.744 709.018C683.181 706.839 678.241 705.573 676.924 705.218L676.012 695.49C678.799 695.49 689.515 692.83 708.16 687.51C708.869 687.307 709.705 687.079 710.668 686.826C711.681 686.573 712.973 686.218 714.544 685.762C716.165 685.357 717.635 684.977 718.952 684.622L718.952 684.47C717.584 684.115 715.684 683.558 713.252 682.798C710.871 682.038 706.817 680.822 701.092 679.15C695.367 677.529 690.933 676.338 687.792 675.578C684.651 674.869 681.028 673.931 676.924 672.766L676.012 663.038C678.444 663.038 691.237 659.745 714.392 653.158C719.915 651.587 723.563 650.473 725.336 649.814C727.109 649.155 728.477 648.421 729.44 647.61L730.2 647.61L730.2 658.934L728.908 658.934C725.564 658.934 720.877 659.719 714.848 661.29L682.7 669.346C698.609 674.058 711.656 677.301 721.84 679.074C725.437 679.682 728.224 680.011 730.2 680.062L730.2 689.41C725.387 689.917 718.293 691.487 708.92 694.122C705.525 695.085 696.785 697.567 682.7 701.57C683.663 701.773 686.475 702.533 691.136 703.85C707.704 708.41 720.295 710.69 728.908 710.69ZM676.088 737.905C676.088 732.585 677.76 728.379 681.104 725.289C684.499 722.198 688.907 720.653 694.328 720.653C699.8 720.653 704.512 722.451 708.464 726.049C712.416 729.646 714.392 734.155 714.392 739.577C714.392 745.049 712.745 749.254 709.452 752.193C706.159 755.182 701.751 756.677 696.228 756.677C690.705 756.677 685.968 754.878 682.016 751.281C678.064 747.683 676.088 743.225 676.088 737.905ZM694.328 748.621C699.344 748.621 703.22 747.835 705.956 746.265C708.692 744.694 710.06 741.907 710.06 737.905C710.06 735.321 709.503 733.294 708.388 731.825C707.223 730.913 705.449 730.153 703.068 729.545C700.687 728.987 698.407 728.709 696.228 728.709C685.639 728.709 680.344 732.458 680.344 739.957C680.344 742.287 680.876 744.187 681.94 745.657C683.105 746.619 684.904 747.354 687.336 747.861C689.768 748.367 692.099 748.621 694.328 748.621ZM714.392 785.672C714.392 787.243 714.215 788.408 713.86 789.168C713.556 789.168 713.252 789.168 712.948 789.168C709.959 789.168 707.248 788.712 704.816 787.8C706.285 785.52 707.02 782.936 707.02 780.048C707.02 778.478 706.741 776.907 706.184 775.336L689.92 775.336C685.005 775.336 680.876 776.071 677.532 777.54L677 777.54L677 766.9L677.532 766.9C680.065 767.762 683.435 768.192 687.64 768.192L700.56 768.192C702.739 768.192 704.867 767.736 706.944 766.824C709.072 765.963 710.491 764.95 711.2 763.784L712.112 763.708L714.468 772.676C713.1 773.487 711.504 774.146 709.68 774.652C712.821 777.692 714.392 781.366 714.392 785.672ZM676.164 808.013C676.164 802.743 677.937 798.817 681.484 796.233C685.081 793.649 689.591 792.357 695.012 792.357C700.433 792.357 705.019 794.003 708.768 797.297C712.517 800.641 714.392 804.846 714.392 809.913C714.392 812.75 713.911 815.562 712.948 818.349L721.612 818.349C725.665 818.349 728.807 817.183 731.036 814.853L731.948 814.853L733.772 825.265L733.012 825.721C731.543 825.569 729.44 825.493 726.704 825.493L689.084 825.493C686.804 825.493 684.625 825.847 682.548 826.557C680.521 827.266 679.128 828.178 678.368 829.293L677.608 829.445L675.632 821.161C676.899 820.654 678.976 820.021 681.864 819.261C678.064 815.359 676.164 811.61 676.164 808.013ZM684.068 804.441C682.548 805.91 681.788 807.911 681.788 810.445C681.788 812.978 683.004 815.613 685.436 818.349L706.868 818.349C708.793 815.714 709.756 812.421 709.756 808.469C709.756 806.189 709.3 804.441 708.388 803.225C705.399 801.35 701.269 800.413 696 800.413C690.731 800.413 686.753 801.755 684.068 804.441ZM687.564 839.423L702.308 839.423C706.817 839.423 709.959 838.156 711.732 835.623L712.644 835.623L714.468 846.339L713.708 846.795C712.239 846.643 710.136 846.567 707.4 846.567L689.464 846.567C684.397 846.567 680.42 847.2 677.532 848.467L677 848.467L677 838.207L677.532 838.207C679.913 839.017 683.257 839.423 687.564 839.423ZM730.808 845.807C730.2 846.516 728.731 846.871 726.4 846.871C725.843 846.871 725.336 846.845 724.88 846.795L724.348 846.187C723.791 844.16 723.385 841.753 723.132 838.967L723.436 838.283C724.753 837.523 726.501 837.143 728.68 837.143C728.933 837.143 729.187 837.143 729.44 837.143L729.972 837.751C730.783 840.183 731.188 842.513 731.188 844.743C731.188 844.996 731.061 845.351 730.808 845.807ZM676.164 872.456C676.164 867.136 677.811 862.981 681.104 859.992C684.397 857.003 688.729 855.508 694.1 855.508C699.521 855.508 704.259 857.18 708.312 860.524C712.365 863.868 714.392 868.023 714.392 872.988C714.392 882.057 708.793 886.592 697.596 886.592L694.86 883.78L694.86 863.564C690.604 863.564 687.412 864.476 685.284 866.3C683.156 868.124 682.092 870.581 682.092 873.672C682.092 874.888 682.447 876.611 683.156 878.84C683.916 881.069 684.803 883.045 685.816 884.768L682.928 886.668C681.965 885.705 680.597 883.603 678.824 880.36C677.051 877.168 676.164 874.533 676.164 872.456ZM710.592 871.62C710.592 869.492 710.111 867.845 709.148 866.68C707.831 865.717 706.159 864.957 704.132 864.4C702.105 863.843 700.332 863.564 698.812 863.564L699.42 879.144C706.868 879.144 710.592 876.636 710.592 871.62Z" fill="#FC1717"/>
<path d="M660.3 1009.42L660.3 980.976C660.3 970.224 659.74 962.72 658.62 958.464L658.62 956L677.884 956L677.884 958.464C677.436 960.181 677.063 963.616 676.764 968.768C676.391 973.995 676.204 977.952 676.204 980.64L676.204 991.28C684.567 991.429 691.212 991.504 696.14 991.504C701.068 991.504 705.623 991.467 709.804 991.392L709.804 980.64C709.804 978.027 709.655 974.107 709.356 968.88C708.983 963.653 708.61 960.181 708.236 958.464L708.236 956L727.388 956L727.388 958.464C726.268 962.72 725.708 970.224 725.708 980.976L725.708 1009.42C725.708 1020.18 726.268 1027.68 727.388 1031.94L727.388 1034.4L708.236 1034.4L708.236 1031.94C708.61 1030.22 708.983 1026.75 709.356 1021.52C709.655 1016.29 709.804 1012.34 709.804 1009.65L709.804 1001.14L676.204 1001.14L676.204 1009.65C676.204 1012.41 676.391 1016.37 676.764 1021.52C677.063 1026.75 677.436 1030.22 677.884 1031.94L677.884 1034.4L658.62 1034.4L658.62 1031.94C659.74 1027.68 660.3 1020.18 660.3 1009.42Z" fill="#FC1717"/>
</svg>
