<svg width="816" height="1110" viewBox="0 0 816 1110" fill="none" xmlns="http://www.w3.org/2000/svg">
<rect x="36.5" y="36.5" width="743" height="1037" rx="36.5" fill="white" stroke="black"/>
<path d="M375.171 467.4C370.971 472.8 368.871 479.4 368.871 487.2C368.871 494.8 370.771 501.1 374.571 506.1C378.371 511.1 383.371 515.3 389.571 518.7C395.771 521.9 402.571 525.1 409.971 528.3C417.371 531.3 424.771 534.7 432.171 538.5C439.571 542.1 446.371 546.4 452.571 551.4C458.771 556.2 463.771 562.7 467.571 570.9C471.371 578.9 473.271 588.2 473.271 598.8C473.271 619 466.771 634.3 453.771 644.7C440.771 655.1 422.971 660.3 400.371 660.3C377.771 660.3 357.471 653.9 339.471 641.1C340.071 627.9 343.671 616.4 350.271 606.6C358.271 616.2 367.971 624.1 379.371 630.3C390.771 636.5 401.671 639.6 412.071 639.6C422.471 639.6 431.371 637.3 438.771 632.7C443.771 626.7 446.271 618.8 446.271 609C446.271 599.2 443.671 591.2 438.471 585C433.471 578.8 427.171 574 419.571 570.6C412.171 567 403.971 563.1 394.971 558.9C386.171 554.5 377.971 550.1 370.371 545.7C362.971 541.3 356.671 535 351.471 526.8C346.471 518.6 343.971 509 343.971 498C343.971 479.6 350.171 465.9 362.571 456.9C375.171 447.9 390.871 443.4 409.671 443.4C428.671 443.4 448.071 448 467.871 457.2C465.671 469 462.071 480.2 457.071 490.8C448.871 482.6 439.371 475.9 428.571 470.7C417.971 465.3 407.871 462.6 398.271 462.6C388.671 462.6 380.971 464.2 375.171 467.4Z" fill="black"/>
<path fill-rule="evenodd" clip-rule="evenodd" d="M138.562 1035.96C126.352 1041.35 119.773 1041.35 107.444 1035.96C106.878 1035.71 106.677 1035 107.013 1034.48C112.996 1025.18 115.633 1017.64 117.335 1009.16C101.431 1026.73 67 1013.8 67 984.605C67 971.234 69.6103 952.662 121.73 910.442C122.458 909.853 123.542 909.853 124.27 910.442C176.39 952.662 179 971.234 179 984.605C179 1013.87 144.408 1026.79 128.554 1009.03C130.292 1017.57 132.972 1025.14 138.99 1034.49C139.324 1035.01 139.126 1035.71 138.562 1035.96ZM103.304 954.1V1001H110.794V944.3H105.124C104.424 945.233 103.561 946.05 102.534 946.75C101.554 947.45 100.504 948.033 99.3841 948.5C98.3108 948.967 97.2374 949.363 96.1641 949.69C95.1374 950.017 94.2274 950.273 93.4341 950.46L93.4341 956.13C93.4808 956.13 93.9941 956.037 94.9741 955.85C95.9541 955.663 97.0741 955.453 98.3341 955.22C99.5941 954.987 100.714 954.753 101.694 954.52C102.721 954.287 103.257 954.147 103.304 954.1ZM129.238 999.46C131.338 1000.91 133.998 1001.63 137.218 1001.63C140.438 1001.63 143.075 1000.93 145.128 999.53C147.181 998.083 148.698 996.1 149.678 993.58C150.705 991.06 151.218 988.167 151.218 984.9L151.218 960.47C151.218 957.157 150.728 954.263 149.748 951.79C148.768 949.27 147.251 947.31 145.198 945.91C143.145 944.51 140.485 943.81 137.218 943.81C133.951 943.81 131.268 944.51 129.168 945.91C127.115 947.31 125.598 949.27 124.618 951.79C123.638 954.263 123.148 957.157 123.148 960.47L123.148 984.9C123.148 988.12 123.638 990.99 124.618 993.51C125.645 996.03 127.185 998.013 129.238 999.46ZM141.208 993.93C140.321 994.957 138.991 995.47 137.218 995.47C135.491 995.47 134.138 994.957 133.158 993.93C132.225 992.903 131.571 991.597 131.198 990.01C130.871 988.377 130.708 986.697 130.708 984.97V960.4C130.708 958.58 130.871 956.877 131.198 955.29C131.525 953.657 132.155 952.35 133.088 951.37C134.021 950.39 135.398 949.9 137.218 949.9C139.038 949.9 140.391 950.39 141.278 951.37C142.211 952.35 142.841 953.657 143.168 955.29C143.495 956.877 143.658 958.58 143.658 960.4L143.658 984.97C143.658 986.697 143.471 988.377 143.098 990.01C142.771 991.597 142.141 992.903 141.208 993.93Z" fill="black"/>
<path d="M92.336 810.301C90.056 810.301 87.8013 810.428 85.572 810.681C85.724 800.497 85.8 793.961 85.8 791.073C85.8 788.134 85.724 781.573 85.572 771.389C88.6627 771.744 90.9173 771.921 92.336 771.921L92.336 772.453C90.9173 778.077 90.1573 782.865 90.056 786.817C92.6907 787.07 96.7693 787.197 102.292 787.197L123.192 787.197C130.032 787.197 135.124 786.817 138.468 786.057L139 786.057L139 796.013L138.468 796.013C135.175 795.354 130.184 795.025 123.496 795.025L102.596 795.025C96.8707 795.025 92.6907 795.152 90.056 795.405C90.1573 799.256 90.9173 804.044 92.336 809.769L92.336 810.301ZM123.8 752.398C123.04 754.476 122.66 756.882 122.66 759.618C122.66 762.304 123.091 764.254 123.952 765.47C125.117 766.23 126.688 766.61 128.664 766.61C130.589 766.61 132.109 766.078 133.224 765.014C134.339 763.95 134.896 762.633 134.896 761.062C134.896 759.441 134.491 757.794 133.68 756.122C132.819 754.45 131.907 753.209 130.944 752.398L123.8 752.398ZM134.744 751.182C138.139 754.273 139.836 757.769 139.836 761.67C139.836 765.521 139 768.561 137.328 770.79C135.656 772.969 132.971 774.058 129.272 774.058C125.523 774.058 122.837 772.766 121.216 770.182C119.595 767.548 118.784 763.849 118.784 759.086L119.012 752.398L114.68 752.398C111.995 752.398 109.816 753.057 108.144 754.374C106.472 755.692 105.636 757.693 105.636 760.378C105.687 762.354 107.587 765.521 111.336 769.878C109.461 771.348 107.029 772.386 104.04 772.994C102.419 767.978 101.608 763.368 101.608 759.162C101.608 754.957 102.697 751.588 104.876 749.054C107.055 746.521 110.145 745.254 114.148 745.254L126.916 745.254C129.196 745.204 131.324 744.849 133.3 744.19C135.225 743.481 136.568 742.569 137.328 741.454L138.088 741.302L140.064 749.434C138.443 750.093 136.669 750.676 134.744 751.182ZM139 723.526L139 733.178L138.088 733.178C135.555 732.316 131.552 731.886 126.08 731.886L94.388 731.886C90.3346 731.886 87.1933 733.051 84.964 735.382L84.052 735.382L82.228 724.97L82.988 724.514C84.4573 724.666 86.56 724.742 89.296 724.742L116.048 724.742L105.256 711.822C104.091 710.403 103.179 709.694 102.52 709.694L102.52 700.954L103.432 700.954C103.533 701.916 105.104 704.298 108.144 708.098L117.416 718.89L127.6 709.39C131.451 705.894 134.035 703.386 135.352 701.866C136.669 700.346 137.581 698.876 138.088 697.458L139 697.458L139 708.782C138.899 708.782 132.515 714.102 119.848 724.742L126.08 724.742C131.704 724.742 135.707 724.336 138.088 723.526L139 723.526ZM139.836 679.776C139.836 685.096 138.189 689.251 134.896 692.24C131.603 695.23 127.271 696.724 121.9 696.724C116.479 696.724 111.741 695.052 107.688 691.708C103.635 688.364 101.608 684.21 101.608 679.244C101.608 670.175 107.207 665.64 118.404 665.64L121.14 668.452L121.14 688.668C125.396 688.668 128.588 687.756 130.716 685.932C132.844 684.108 133.908 681.651 133.908 678.56C133.908 677.344 133.553 675.622 132.844 673.392C132.084 671.163 131.197 669.187 130.184 667.464L133.072 665.564C134.035 666.527 135.403 668.63 137.176 671.872C138.949 675.064 139.836 677.699 139.836 679.776ZM105.408 680.612C105.408 682.74 105.889 684.387 106.852 685.552C108.169 686.515 109.841 687.275 111.868 687.832C113.895 688.39 115.668 688.668 117.188 688.668L116.58 673.088C109.132 673.088 105.408 675.596 105.408 680.612ZM130.488 630.091C133.173 630.091 134.516 629.281 134.516 627.659C134.516 626.291 133.705 623.986 132.084 620.743L134.744 619.147C135.859 620.769 136.999 622.795 138.164 625.227C139.279 627.659 139.836 629.889 139.836 631.915C139.836 633.942 139.203 635.335 137.936 636.095C136.669 636.855 134.845 637.235 132.464 637.235L106.852 637.235L107.232 644.075L102.292 642.251C102.393 641.339 102.495 639.718 102.596 637.387C100.063 637.489 97.7826 637.641 95.756 637.843L93.78 630.091L102.52 630.091C102.419 627.355 102.115 623.631 101.608 618.919L107.536 621.047C107.131 623.783 106.877 626.798 106.776 630.091L130.488 630.091ZM97.58 603.177L107.992 603.177C106.523 601.251 105.433 599.782 104.724 598.769C104.015 597.705 103.331 596.362 102.672 594.741C101.963 593.069 101.608 591.498 101.608 590.029C101.608 586.279 102.773 583.391 105.104 581.365C107.435 579.338 110.779 578.325 115.136 578.325L126.08 578.325C130.893 578.325 135.023 577.565 138.468 576.045L139 576.045L139 586.761L138.468 586.761C135.935 585.899 132.565 585.469 128.36 585.469L116.732 585.469C113.793 585.469 111.589 585.925 110.12 586.837C108.6 587.698 107.84 589.547 107.84 592.385C107.84 595.171 109.132 598.693 111.716 602.949L126.08 602.949C130.995 602.949 135.124 602.214 138.468 600.745L139 600.745L139 611.385L138.468 611.385C135.935 610.523 132.565 610.093 128.36 610.093L94.388 610.093C90.3346 610.093 87.1933 611.258 84.964 613.589L84.052 613.589L82.228 603.405L82.988 602.949C84.4573 603.101 89.3213 603.177 97.58 603.177ZM139.836 551.601C139.836 556.921 138.189 561.075 134.896 564.065C131.603 567.054 127.271 568.549 121.9 568.549C116.479 568.549 111.741 566.877 107.688 563.533C103.635 560.189 101.608 556.034 101.608 551.069C101.608 541.999 107.207 537.465 118.404 537.465L121.14 540.277L121.14 560.493C125.396 560.493 128.588 559.581 130.716 557.757C132.844 555.933 133.908 553.475 133.908 550.385C133.908 549.169 133.553 547.446 132.844 545.217C132.084 542.987 131.197 541.011 130.184 539.289L133.072 537.389C134.035 538.351 135.403 540.454 137.176 543.697C138.949 546.889 139.836 549.523 139.836 551.601ZM105.408 552.437C105.408 554.565 105.889 556.211 106.852 557.377C108.169 558.339 109.841 559.099 111.868 559.657C113.895 560.214 115.668 560.493 117.188 560.493L116.58 544.913C109.132 544.913 105.408 547.421 105.408 552.437ZM90.968 504.12C92.336 505.184 94.008 505.716 95.984 505.716C97.9093 505.716 99.5053 505.234 100.772 504.272C102.039 503.309 103.103 502.042 103.964 500.472C104.775 498.901 105.585 497.178 106.396 495.304C107.156 493.429 108.017 491.554 108.98 489.68C109.892 487.805 110.981 486.082 112.248 484.512C113.464 482.941 115.111 481.674 117.188 480.712C119.215 479.749 121.571 479.268 124.256 479.268C129.373 479.268 133.249 480.914 135.884 484.208C138.519 487.501 139.836 492.01 139.836 497.736C139.836 503.461 138.215 508.604 134.972 513.164C131.628 513.012 128.715 512.1 126.232 510.428C128.664 508.401 130.665 505.944 132.236 503.056C133.807 500.168 134.592 497.406 134.592 494.772C134.592 492.137 134.009 489.882 132.844 488.008C131.324 486.741 129.323 486.108 126.84 486.108C124.357 486.108 122.331 486.766 120.76 488.084C119.189 489.35 117.973 490.946 117.112 492.872C116.2 494.746 115.212 496.824 114.148 499.104C113.033 501.333 111.919 503.41 110.804 505.336C109.689 507.21 108.093 508.806 106.016 510.124C103.939 511.39 101.507 512.024 98.72 512.024C94.0586 512.024 90.588 510.453 88.308 507.312C86.028 504.12 84.888 500.142 84.888 495.38C84.888 490.566 86.0533 485.652 88.384 480.636C91.3733 481.193 94.2106 482.105 96.896 483.372C94.8186 485.449 93.1213 487.856 91.804 490.592C90.436 493.277 89.752 495.836 89.752 498.268C89.752 500.7 90.1573 502.65 90.968 504.12ZM139.836 456.656C139.836 460.912 138.747 463.901 136.568 465.624C134.339 467.296 130.919 468.132 126.308 468.132L115.44 468.132C110.627 468.132 106.497 468.892 103.052 470.412L102.52 470.412L102.52 459.848L103.052 459.848C105.737 460.608 109.107 460.988 113.16 460.988L125.092 460.988C128.132 460.988 130.311 460.608 131.628 459.848C132.945 459.088 133.604 457.238 133.604 454.3C133.604 451.361 132.211 447.916 129.424 443.964L115.44 443.964C110.525 443.964 106.396 444.698 103.052 446.168L102.52 446.168L102.52 435.68L103.052 435.68C105.737 436.44 109.107 436.82 113.16 436.82L126.004 436.82C128.233 436.82 130.437 436.44 132.616 435.68C134.744 434.92 136.163 434.033 136.872 433.02L137.784 432.944L139.912 441.836C137.581 442.697 135.352 443.305 133.224 443.66C135.352 446.142 136.999 448.397 138.164 450.424C139.279 452.45 139.836 454.528 139.836 456.656ZM101.608 403.185C101.608 401.614 101.785 400.449 102.14 399.689C102.444 399.689 102.748 399.689 103.052 399.689C106.041 399.689 108.752 400.145 111.184 401.057C109.715 403.337 108.98 405.921 108.98 408.809C108.98 410.38 109.259 411.95 109.816 413.521L126.08 413.521C130.995 413.521 135.124 412.786 138.468 411.317L139 411.317L139 421.957L138.468 421.957C135.935 421.096 132.565 420.665 128.36 420.665L115.44 420.665C113.261 420.665 111.133 421.121 109.056 422.033C106.928 422.894 105.509 423.908 104.8 425.073L103.888 425.149L101.532 416.181C102.9 415.37 104.496 414.712 106.32 414.205C103.179 411.165 101.608 407.492 101.608 403.185ZM102.824 388.86C104.293 388.86 108.119 387.847 114.3 385.82L131.856 380.12L112.628 373.736C109.284 372.672 106.219 372.14 103.432 372.14L102.52 372.14L102.52 364.16L103.432 364.16C104.699 365.528 107.156 366.846 110.804 368.112L135.656 376.7L139.532 377.764L139.836 384.832L135.504 386.124L110.5 395.168C106.903 396.587 104.673 397.93 103.812 399.196L102.9 399.196L101.912 388.86L102.824 388.86ZM139.836 343.936C139.836 349.256 138.189 353.411 134.896 356.4C131.603 359.39 127.271 360.884 121.9 360.884C116.479 360.884 111.741 359.212 107.688 355.868C103.635 352.524 101.608 348.37 101.608 343.404C101.608 334.335 107.207 329.8 118.404 329.8L121.14 332.612L121.14 352.828C125.396 352.828 128.588 351.916 130.716 350.092C132.844 348.268 133.908 345.811 133.908 342.72C133.908 341.504 133.553 339.782 132.844 337.552C132.084 335.323 131.197 333.347 130.184 331.624L133.072 329.724C134.035 330.687 135.403 332.79 137.176 336.032C138.949 339.224 139.836 341.859 139.836 343.936ZM105.408 344.772C105.408 346.9 105.889 348.547 106.852 349.712C108.169 350.675 109.841 351.435 111.868 351.992C113.895 352.55 115.668 352.828 117.188 352.828L116.58 337.248C109.132 337.248 105.408 339.756 105.408 344.772ZM132.008 307.37C117.163 302.506 108.347 300.074 105.56 300.074C104.699 300.074 103.989 300.251 103.432 300.606L102.52 300.606L102.52 292.474L103.432 292.474C104.091 293.234 115.693 297.363 138.24 304.862C148.779 308.459 155.061 310.511 157.088 311.018L157.696 311.018L158.38 320.442L157.848 320.518C153.44 316.819 147.512 313.576 140.064 310.79C139.203 311.094 128.765 315.476 108.752 323.938C106.371 324.951 104.699 326.04 103.736 327.206L102.824 327.206L101.988 317.022L102.9 317.022C104.217 317.022 106.776 316.414 110.576 315.198C114.325 313.982 121.469 311.372 132.008 307.37Z" fill="black"/>
<path d="M112.413 98.336C114.355 100.053 116.483 101.472 118.797 102.592C121.112 103.637 123.165 104.571 124.957 105.392C126.824 106.213 128.019 106.773 128.541 107.072C129.064 107.296 130.296 107.856 132.237 108.752C134.253 109.648 135.523 110.245 136.045 110.544C136.568 110.768 137.725 111.403 139.517 112.448C141.309 113.493 142.541 114.352 143.213 115.024C143.885 115.696 144.856 116.704 146.125 118.048C147.395 119.317 148.291 120.549 148.813 121.744C150.232 125.104 150.941 128.501 150.941 131.936C150.941 139.627 148.179 145.451 142.653 149.408C137.203 153.365 129.699 155.344 120.141 155.344C110.659 155.344 101.997 152.731 94.1574 147.504C94.3814 142.128 96.4347 137.088 100.317 132.384C103.901 136.341 107.933 139.589 112.413 142.128C116.893 144.667 120.963 145.936 124.621 145.936C128.355 145.936 131.64 145.115 134.477 143.472C135.896 141.605 136.605 138.693 136.605 134.736C136.605 131.749 135.747 129.36 134.029 127.568C132.984 126.597 132.088 125.813 131.341 125.216C130.669 124.544 129.437 123.76 127.645 122.864C125.853 121.893 122.195 120.213 116.669 117.824C111.219 115.36 107.411 113.419 105.245 112C99.048 107.819 95.9494 102.219 95.9494 95.2C95.9494 88.1067 98.6 82.8427 103.901 79.408C109.277 75.9733 115.923 74.256 123.837 74.256C131.752 74.256 140.077 76.1227 148.813 79.856C147.917 85.008 146.013 90.0107 143.101 94.864C139.293 91.3547 135.261 88.5173 131.005 86.352C126.749 84.112 122.904 82.992 119.469 82.992C116.035 82.992 113.309 83.552 111.293 84.672C110.099 86.0907 109.501 88.2933 109.501 91.28C109.501 94.2667 110.472 96.6187 112.413 98.336Z" fill="black"/>
<path fill-rule="evenodd" clip-rule="evenodd" d="M677.438 74.0393C689.648 68.6529 696.227 68.6536 708.556 74.0413C709.122 74.2888 709.323 74.9972 708.987 75.5185C703.004 84.8184 700.367 92.361 698.665 100.842C714.569 83.2718 749 96.1992 749 125.395C749 138.766 746.39 157.338 694.27 199.558C693.542 200.147 692.458 200.147 691.73 199.558C639.61 157.338 637 138.766 637 125.395C637 96.1307 671.592 83.2112 687.446 100.966C685.708 92.4333 683.028 84.8616 677.01 75.5147C676.676 74.9948 676.874 74.2881 677.438 74.0393ZM712.696 155.9L712.696 109L705.206 109L705.206 165.7L710.876 165.7C711.576 164.767 712.439 163.95 713.466 163.25C714.446 162.55 715.496 161.967 716.616 161.5C717.689 161.033 718.763 160.637 719.836 160.31C720.863 159.983 721.773 159.727 722.566 159.54L722.566 153.87C722.519 153.87 722.006 153.963 721.026 154.15C720.046 154.337 718.926 154.547 717.666 154.78C716.406 155.013 715.286 155.247 714.306 155.48C713.279 155.713 712.743 155.853 712.696 155.9ZM686.762 110.54C684.662 109.093 682.002 108.37 678.782 108.37C675.562 108.37 672.925 109.07 670.872 110.47C668.819 111.917 667.302 113.9 666.322 116.42C665.295 118.94 664.782 121.833 664.782 125.1L664.782 149.53C664.782 152.843 665.272 155.737 666.252 158.21C667.232 160.73 668.749 162.69 670.802 164.09C672.855 165.49 675.515 166.19 678.782 166.19C682.049 166.19 684.732 165.49 686.832 164.09C688.885 162.69 690.402 160.73 691.382 158.21C692.362 155.737 692.852 152.843 692.852 149.53L692.852 125.1C692.852 121.88 692.362 119.01 691.382 116.49C690.355 113.97 688.815 111.987 686.762 110.54ZM674.792 116.07C675.679 115.043 677.009 114.53 678.782 114.53C680.509 114.53 681.862 115.043 682.842 116.07C683.775 117.097 684.429 118.403 684.802 119.99C685.129 121.623 685.292 123.303 685.292 125.03L685.292 149.6C685.292 151.42 685.129 153.123 684.802 154.71C684.475 156.343 683.845 157.65 682.912 158.63C681.979 159.61 680.602 160.1 678.782 160.1C676.962 160.1 675.609 159.61 674.722 158.63C673.789 157.65 673.159 156.343 672.832 154.71C672.505 153.123 672.342 151.42 672.342 149.6L672.342 125.03C672.342 123.303 672.529 121.623 672.902 119.99C673.229 118.403 673.859 117.097 674.792 116.07Z" fill="black"/>
<path d="M723.664 299.699C725.944 299.699 728.199 299.572 730.428 299.319C730.276 309.503 730.2 316.039 730.2 318.927C730.2 321.866 730.276 328.427 730.428 338.611C727.337 338.256 725.083 338.079 723.664 338.079L723.664 337.547C725.083 331.923 725.843 327.135 725.944 323.183C723.309 322.93 719.231 322.803 713.708 322.803L692.808 322.803C685.968 322.803 680.876 323.183 677.532 323.943L677 323.943L677 313.987L677.532 313.987C680.825 314.646 685.816 314.975 692.504 314.975L713.404 314.975C719.129 314.975 723.309 314.848 725.944 314.595C725.843 310.744 725.083 305.956 723.664 300.231L723.664 299.699ZM692.2 357.601C692.96 355.524 693.34 353.117 693.34 350.381C693.34 347.696 692.909 345.745 692.048 344.529C690.883 343.769 689.312 343.389 687.336 343.389C685.411 343.389 683.891 343.921 682.776 344.985C681.661 346.049 681.104 347.367 681.104 348.937C681.104 350.559 681.509 352.205 682.32 353.877C683.181 355.549 684.093 356.791 685.056 357.601L692.2 357.601ZM681.256 358.817C677.861 355.727 676.164 352.231 676.164 348.329C676.164 344.479 677 341.439 678.672 339.209C680.344 337.031 683.029 335.941 686.728 335.941C690.477 335.941 693.163 337.233 694.784 339.817C696.405 342.452 697.216 346.151 697.216 350.913L696.988 357.601L701.32 357.601C704.005 357.601 706.184 356.943 707.856 355.625C709.528 354.308 710.364 352.307 710.364 349.621C710.313 347.645 708.413 344.479 704.664 340.121C706.539 338.652 708.971 337.613 711.96 337.005C713.581 342.021 714.392 346.632 714.392 350.837C714.392 355.043 713.303 358.412 711.124 360.945C708.945 363.479 705.855 364.745 701.852 364.745L689.084 364.745C686.804 364.796 684.676 365.151 682.7 365.809C680.775 366.519 679.432 367.431 678.672 368.545L677.912 368.697L675.936 360.565C677.557 359.907 679.331 359.324 681.256 358.817ZM677 386.474L677 376.822L677.912 376.822C680.445 377.684 684.448 378.114 689.92 378.114L721.612 378.114C725.665 378.114 728.807 376.949 731.036 374.618L731.948 374.618L733.772 385.03L733.012 385.486C731.543 385.334 729.44 385.258 726.704 385.258L699.952 385.258L710.744 398.178C711.909 399.597 712.821 400.306 713.48 400.306L713.48 409.046L712.568 409.046C712.467 408.084 710.896 405.702 707.856 401.902L698.584 391.11L688.4 400.61C684.549 404.106 681.965 406.614 680.648 408.134C679.331 409.654 678.419 411.124 677.912 412.542L677 412.542L677 401.218C677.101 401.218 683.485 395.898 696.152 385.258L689.92 385.258C684.296 385.258 680.293 385.664 677.912 386.474L677 386.474ZM676.164 430.224C676.164 424.904 677.811 420.749 681.104 417.76C684.397 414.77 688.729 413.276 694.1 413.276C699.521 413.276 704.259 414.948 708.312 418.292C712.365 421.636 714.392 425.79 714.392 430.756C714.392 439.825 708.793 444.36 697.596 444.36L694.86 441.548L694.86 421.332C690.604 421.332 687.412 422.244 685.284 424.068C683.156 425.892 682.092 428.349 682.092 431.44C682.092 432.656 682.447 434.378 683.156 436.608C683.916 438.837 684.803 440.813 685.816 442.536L682.928 444.436C681.965 443.473 680.597 441.37 678.824 438.128C677.051 434.936 676.164 432.301 676.164 430.224ZM710.592 429.388C710.592 427.26 710.111 425.613 709.148 424.448C707.831 423.485 706.159 422.725 704.132 422.168C702.105 421.61 700.332 421.332 698.812 421.332L699.42 436.912C706.868 436.912 710.592 434.404 710.592 429.388ZM685.512 479.909C682.827 479.909 681.484 480.719 681.484 482.341C681.484 483.709 682.295 486.014 683.916 489.257L681.256 490.853C680.141 489.231 679.001 487.205 677.836 484.773C676.721 482.341 676.164 480.111 676.164 478.085C676.164 476.058 676.797 474.665 678.064 473.905C679.331 473.145 681.155 472.765 683.536 472.765L709.148 472.765L708.768 465.925L713.708 467.749C713.607 468.661 713.505 470.282 713.404 472.613C715.937 472.511 718.217 472.359 720.244 472.157L722.22 479.909L713.48 479.909C713.581 482.645 713.885 486.369 714.392 491.081L708.464 488.953C708.869 486.217 709.123 483.202 709.224 479.909L685.512 479.909ZM718.42 506.823L708.008 506.823C709.477 508.749 710.567 510.218 711.276 511.231C711.985 512.295 712.669 513.638 713.328 515.259C714.037 516.931 714.392 518.502 714.392 519.971C714.392 523.721 713.227 526.609 710.896 528.635C708.565 530.662 705.221 531.675 700.864 531.675L689.92 531.675C685.107 531.675 680.977 532.435 677.532 533.955L677 533.955L677 523.239L677.532 523.239C680.065 524.101 683.435 524.531 687.64 524.531L699.268 524.531C702.207 524.531 704.411 524.075 705.88 523.163C707.4 522.302 708.16 520.453 708.16 517.615C708.16 514.829 706.868 511.307 704.284 507.051L689.92 507.051C685.005 507.051 680.876 507.786 677.532 509.255L677 509.255L677 498.615L677.532 498.615C680.065 499.477 683.435 499.907 687.64 499.907L721.612 499.907C725.665 499.907 728.807 498.742 731.036 496.411L731.948 496.411L733.772 506.595L733.012 507.051C731.543 506.899 726.679 506.823 718.42 506.823ZM676.164 558.399C676.164 553.079 677.811 548.925 681.104 545.935C684.397 542.946 688.729 541.451 694.1 541.451C699.521 541.451 704.259 543.123 708.312 546.467C712.365 549.811 714.392 553.966 714.392 558.931C714.392 568.001 708.793 572.535 697.596 572.535L694.86 569.723L694.86 549.507C690.604 549.507 687.412 550.419 685.284 552.243C683.156 554.067 682.092 556.525 682.092 559.615C682.092 560.831 682.447 562.554 683.156 564.783C683.916 567.013 684.803 568.989 685.816 570.711L682.928 572.611C681.965 571.649 680.597 569.546 678.824 566.303C677.051 563.111 676.164 560.477 676.164 558.399ZM710.592 557.563C710.592 555.435 710.111 553.789 709.148 552.623C707.831 551.661 706.159 550.901 704.132 550.343C702.105 549.786 700.332 549.507 698.812 549.507L699.42 565.087C706.868 565.087 710.592 562.579 710.592 557.563ZM725.032 605.88C723.664 604.816 721.992 604.284 720.016 604.284C718.091 604.284 716.495 604.766 715.228 605.728C713.961 606.691 712.897 607.958 712.036 609.528C711.225 611.099 710.415 612.822 709.604 614.696C708.844 616.571 707.983 618.446 707.02 620.32C706.108 622.195 705.019 623.918 703.752 625.488C702.536 627.059 700.889 628.326 698.812 629.288C696.785 630.251 694.429 630.732 691.744 630.732C686.627 630.732 682.751 629.086 680.116 625.792C677.481 622.499 676.164 617.99 676.164 612.264C676.164 606.539 677.785 601.396 681.028 596.836C684.372 596.988 687.285 597.9 689.768 599.572C687.336 601.599 685.335 604.056 683.764 606.944C682.193 609.832 681.408 612.594 681.408 615.228C681.408 617.863 681.991 620.118 683.156 621.992C684.676 623.259 686.677 623.892 689.16 623.892C691.643 623.892 693.669 623.234 695.24 621.916C696.811 620.65 698.027 619.054 698.888 617.128C699.8 615.254 700.788 613.176 701.852 610.896C702.967 608.667 704.081 606.59 705.196 604.664C706.311 602.79 707.907 601.194 709.984 599.876C712.061 598.61 714.493 597.976 717.28 597.976C721.941 597.976 725.412 599.547 727.692 602.688C729.972 605.88 731.112 609.858 731.112 614.62C731.112 619.434 729.947 624.348 727.616 629.364C724.627 628.807 721.789 627.895 719.104 626.628C721.181 624.551 722.879 622.144 724.196 619.408C725.564 616.723 726.248 614.164 726.248 611.732C726.248 609.3 725.843 607.35 725.032 605.88ZM676.164 653.344C676.164 649.088 677.253 646.099 679.432 644.376C681.661 642.704 685.081 641.868 689.692 641.868L700.56 641.868C705.373 641.868 709.503 641.108 712.948 639.588L713.48 639.588L713.48 650.152L712.948 650.152C710.263 649.392 706.893 649.012 702.84 649.012L690.908 649.012C687.868 649.012 685.689 649.392 684.372 650.152C683.055 650.912 682.396 652.761 682.396 655.7C682.396 658.639 683.789 662.084 686.576 666.036L700.56 666.036C705.475 666.036 709.604 665.301 712.948 663.832L713.48 663.832L713.48 674.32L712.948 674.32C710.263 673.56 706.893 673.18 702.84 673.18L689.996 673.18C687.767 673.18 685.563 673.56 683.384 674.32C681.256 675.08 679.837 675.967 679.128 676.98L678.216 677.056L676.088 668.164C678.419 667.303 680.648 666.695 682.776 666.34C680.648 663.857 679.001 661.603 677.836 659.576C676.721 657.549 676.164 655.472 676.164 653.344ZM714.392 706.815C714.392 708.386 714.215 709.551 713.86 710.311C713.556 710.311 713.252 710.311 712.948 710.311C709.959 710.311 707.248 709.855 704.816 708.943C706.285 706.663 707.02 704.079 707.02 701.191C707.02 699.62 706.741 698.05 706.184 696.479L689.92 696.479C685.005 696.479 680.876 697.214 677.532 698.683L677 698.683L677 688.043L677.532 688.043C680.065 688.904 683.435 689.335 687.64 689.335L700.56 689.335C702.739 689.335 704.867 688.879 706.944 687.967C709.072 687.106 710.491 686.092 711.2 684.927L712.112 684.851L714.468 693.819C713.1 694.63 711.504 695.288 709.68 695.795C712.821 698.835 714.392 702.508 714.392 706.815ZM713.176 721.14C711.707 721.14 707.881 722.153 701.7 724.18L684.144 729.88L703.372 736.264C706.716 737.328 709.781 737.86 712.568 737.86L713.48 737.86L713.48 745.84L712.568 745.84C711.301 744.472 708.844 743.154 705.196 741.888L680.344 733.3L676.468 732.236L676.164 725.168L680.496 723.876L705.5 714.832C709.097 713.413 711.327 712.07 712.188 710.804L713.1 710.804L714.088 721.14L713.176 721.14ZM676.164 766.063C676.164 760.743 677.811 756.589 681.104 753.599C684.397 750.61 688.729 749.115 694.1 749.115C699.521 749.115 704.259 750.787 708.312 754.131C712.365 757.475 714.392 761.63 714.392 766.595C714.392 775.665 708.793 780.199 697.596 780.199L694.86 777.387L694.86 757.171C690.604 757.171 687.412 758.083 685.284 759.907C683.156 761.731 682.092 764.189 682.092 767.279C682.092 768.495 682.447 770.218 683.156 772.447C683.916 774.677 684.803 776.653 685.816 778.375L682.928 780.275C681.965 779.313 680.597 777.21 678.824 773.967C677.051 770.775 676.164 768.141 676.164 766.063ZM710.592 765.227C710.592 763.099 710.111 761.453 709.148 760.287C707.831 759.325 706.159 758.565 704.132 758.007C702.105 757.45 700.332 757.171 698.812 757.171L699.42 772.751C706.868 772.751 710.592 770.243 710.592 765.227ZM683.992 802.63C698.837 807.494 707.653 809.926 710.44 809.926C711.301 809.926 712.011 809.749 712.568 809.394L713.48 809.394L713.48 817.526L712.568 817.526C711.909 816.766 700.307 812.637 677.76 805.138C667.221 801.541 660.939 799.489 658.912 798.982L658.304 798.982L657.62 789.558L658.152 789.482C662.56 793.181 668.488 796.423 675.936 799.21C676.797 798.906 687.235 794.523 707.248 786.062C709.629 785.049 711.301 783.959 712.264 782.794L713.176 782.794L714.012 792.978L713.1 792.978C711.783 792.978 709.224 793.586 705.424 794.802C701.675 796.018 694.531 798.627 683.992 802.63Z" fill="black"/>
<path d="M703.587 1011.66C701.645 1009.95 699.517 1008.53 697.203 1007.41C694.888 1006.36 692.835 1005.43 691.043 1004.61C689.176 1003.79 687.981 1003.23 687.459 1002.93C686.936 1002.7 685.704 1002.14 683.763 1001.25C681.747 1000.35 680.477 999.755 679.955 999.456C679.432 999.232 678.275 998.597 676.483 997.552C674.691 996.507 673.459 995.648 672.787 994.976C672.115 994.304 671.144 993.296 669.875 991.952C668.605 990.683 667.709 989.451 667.187 988.256C665.768 984.896 665.059 981.499 665.059 978.064C665.059 970.373 667.821 964.549 673.347 960.592C678.797 956.635 686.301 954.656 695.859 954.656C705.341 954.656 714.003 957.269 721.843 962.496C721.619 967.872 719.565 972.912 715.683 977.616C712.099 973.659 708.067 970.411 703.587 967.872C699.107 965.333 695.037 964.064 691.379 964.064C687.645 964.064 684.36 964.885 681.523 966.528C680.104 968.395 679.395 971.307 679.395 975.264C679.395 978.251 680.253 980.64 681.971 982.432C683.016 983.403 683.912 984.187 684.659 984.784C685.331 985.456 686.563 986.24 688.355 987.136C690.147 988.107 693.805 989.787 699.331 992.176C704.781 994.64 708.589 996.581 710.755 998C716.952 1002.18 720.051 1007.78 720.051 1014.8C720.051 1021.89 717.4 1027.16 712.099 1030.59C706.723 1034.03 700.077 1035.74 692.163 1035.74C684.248 1035.74 675.923 1033.88 667.187 1030.14C668.083 1024.99 669.987 1019.99 672.899 1015.14C676.707 1018.65 680.739 1021.48 684.995 1023.65C689.251 1025.89 693.096 1027.01 696.531 1027.01C699.965 1027.01 702.691 1026.45 704.707 1025.33C705.901 1023.91 706.499 1021.71 706.499 1018.72C706.499 1015.73 705.528 1013.38 703.587 1011.66Z" fill="black"/>
</svg>
